<svg width="670" height="58" viewBox="0 0 670 58" fill="none" xmlns="http://www.w3.org/2000/svg">
<path d="M32.624 57.768V43.944H29.168V0.599997H6.992L5.192 37.392C5.048 40.344 4.616 42.216 3.248 43.944H0.152V57.768H7.856V51H24.776V57.768H32.624ZM14.408 7.8H21.104V43.944H10.736C12.032 42.72 12.752 41.064 12.968 37.248L14.408 7.8ZM52.1563 7.8H65.8363V0.599997H44.2363V51H65.8363V43.8H52.1563V29.04H63.0283V21.84H52.1563V7.8ZM75.7121 51.072H76.9361C84.8561 51.072 88.1681 47.472 88.4561 38.256L89.3201 7.8H96.2321V51H104.296V0.599997H81.9041L80.6081 38.688C80.4641 43.368 79.3121 43.872 75.7121 43.872V51.072ZM135.126 0.599997H123.534L115.47 51H122.742L124.11 41.856H133.83L135.198 51H143.19L135.126 0.599997ZM128.934 9.528L132.75 35.016H125.118L128.934 9.528ZM161.998 7.8H175.678V0.599997H154.078V51H175.678V43.8H161.998V29.04H172.87V21.84H161.998V7.8ZM198.73 0.599997H187.714V51H194.626V15.36L200.53 51H208.018L213.49 14.856V51H220.978V0.599997H209.962L204.562 36.384L198.73 0.599997ZM268.447 0.599997V21.048C268.447 24.432 266.863 26.232 264.343 26.232C261.823 26.232 259.735 24.648 259.735 21.264V0.599997H251.815V21.912C251.815 28.824 255.199 33.504 261.679 33.504C263.839 33.504 266.719 32.568 268.447 30.696V51H276.367V0.599997H268.447ZM287.098 7.8H295.378V51H303.298V7.8H311.578V0.599997H287.098V7.8ZM329.538 12.192C329.538 8.592 331.122 7.224 333.642 7.224C336.162 7.224 337.746 8.592 337.746 12.192V39.408C337.746 43.008 336.162 44.376 333.642 44.376C331.122 44.376 329.538 43.008 329.538 39.408V12.192ZM321.618 38.904C321.618 46.968 325.866 51.576 333.642 51.576C341.418 51.576 345.666 46.968 345.666 38.904V12.696C345.666 4.632 341.418 0.0239997 333.642 0.0239997C325.866 0.0239997 321.618 4.632 321.618 12.696V38.904ZM357.653 29.4H372.053V22.2H357.653V29.4ZM382.315 7.8H390.595V51H398.515V7.8H406.795V0.599997H382.315V7.8ZM424.755 12.192C424.755 8.592 426.339 7.224 428.859 7.224C431.379 7.224 432.963 8.592 432.963 12.192V39.408C432.963 43.008 431.379 44.376 428.859 44.376C426.339 44.376 424.755 43.008 424.755 39.408V12.192ZM416.835 38.904C416.835 46.968 421.083 51.576 428.859 51.576C436.635 51.576 440.883 46.968 440.883 38.904V12.696C440.883 4.632 436.635 0.0239997 428.859 0.0239997C421.083 0.0239997 416.835 4.632 416.835 12.696V38.904ZM489.682 51H497.818L486.802 23.064L497.818 0.599997H489.898L479.53 22.56V0.599997H471.61V51H479.53V35.52L481.978 30.912L489.682 51ZM520.286 0.599997H508.622V51H516.542V32.064H520.286C528.206 32.064 532.094 27.672 532.094 19.608V13.056C532.094 4.992 528.206 0.599997 520.286 0.599997ZM520.286 7.8C522.806 7.8 524.174 8.952 524.174 12.552V20.112C524.174 23.712 522.806 24.864 520.286 24.864H516.542V7.8H520.286ZM569.027 0.599997H560.747L557.147 17.88L555.275 29.616L552.827 17.808L548.507 0.599997H540.659L551.603 39.48L551.531 39.912C550.883 43.584 548.579 44.304 544.547 44.016V51.072C555.563 51.792 558.659 47.256 560.531 38.184L569.027 0.599997ZM577.249 7.8H585.529V51H593.449V7.8H601.729V0.599997H577.249V7.8ZM619.689 12.192C619.689 8.592 621.273 7.224 623.793 7.224C626.313 7.224 627.897 8.592 627.897 12.192V39.408C627.897 43.008 626.313 44.376 623.793 44.376C621.273 44.376 619.689 43.008 619.689 39.408V12.192ZM611.769 38.904C611.769 46.968 616.017 51.576 623.793 51.576C631.569 51.576 635.817 46.968 635.817 38.904V12.696C635.817 4.632 631.569 0.0239997 623.793 0.0239997C616.017 0.0239997 611.769 4.632 611.769 12.696V38.904ZM656.084 7.8H669.764V0.599997H648.164V51H669.764V43.8H656.084V29.04H666.956V21.84H656.084V7.8Z" fill="url(#paint0_linear_1450_720)"/>
<defs>
<linearGradient id="paint0_linear_1450_720" x1="382.5" y1="62.5" x2="378" y2="-0.499991" gradientUnits="userSpaceOnUse">
<stop stop-color="white"/>
<stop offset="0.364483" stop-color="white"/>
<stop offset="0.364583" stop-color="#FF4B1C"/>
<stop offset="0.614583" stop-color="#FF4B1C"/>
<stop offset="0.614683" stop-color="#06FFFF"/>
<stop offset="1" stop-color="#06FFFF"/>
</linearGradient>
</defs>
</svg>
